<svg width="24" height="24" viewBox="0 0 24 24" fill="none" xmlns="http://www.w3.org/2000/svg">
<path d="M21.5308 17.449L19.5308 15.449C19.3901 15.3083 19.1994 15.2293 19.0005 15.2293C18.8016 15.2293 18.6108 15.3083 18.4702 15.449C18.3296 15.5896 18.2506 15.7804 18.2506 15.9793C18.2506 16.1781 18.3296 16.3689 18.4702 16.5095L19.1899 17.2293H15.6704C15.4552 17.2285 15.2438 17.1725 15.0564 17.0666C14.869 16.9608 14.7119 16.8087 14.6001 16.6248L13.6108 14.9871C13.5078 14.8173 13.3416 14.6953 13.1488 14.648C12.9559 14.6006 12.7521 14.6316 12.5821 14.7343C12.4121 14.837 12.2898 15.0029 12.242 15.1957C12.1942 15.3884 12.2248 15.5923 12.3271 15.7625L13.3169 17.4002C13.5625 17.8047 13.9079 18.1394 14.3201 18.3721C14.7322 18.6048 15.1971 18.7278 15.6704 18.7293H19.1899L18.4702 19.449C18.3309 19.5883 18.2506 19.7823 18.2506 19.9793C18.2506 20.1762 18.3309 20.3703 18.4702 20.5095C18.6095 20.6488 18.8035 20.7292 19.0005 20.7292C19.1974 20.7292 19.3915 20.6488 19.5308 20.5095L21.5308 18.5095C21.6737 18.3656 21.7456 18.1725 21.7457 17.9793C21.7458 17.7865 21.6744 17.5935 21.5308 17.449Z" fill="#111111"/>
<path d="M15.8091 6.77076H19.1899L18.4702 7.49049C18.3298 7.62952 18.2485 7.82394 18.248 8.0215C18.2476 8.21906 18.328 8.41386 18.4677 8.55356C18.6074 8.69325 18.8022 8.77367 18.9998 8.77319C19.1973 8.77272 19.3917 8.69137 19.5308 8.55101L21.5308 6.55101C21.6707 6.41002 21.7493 6.21941 21.7493 6.02073C21.7493 5.82206 21.6707 5.63145 21.5308 5.49046L19.5308 3.49046C19.3901 3.34982 19.1994 3.27081 19.0005 3.27081C18.8016 3.27081 18.6108 3.34982 18.4702 3.49046C18.3296 3.6311 18.2506 3.82184 18.2506 4.02073C18.2506 4.21963 18.3296 4.41037 18.4702 4.55101L19.1899 5.27073H15.8091C15.3357 5.27194 14.8706 5.39471 14.4584 5.62727C14.0461 5.85983 13.7005 6.19438 13.4546 6.59886L7.40039 16.6248C7.28873 16.8087 7.13172 16.9609 6.9444 17.0667C6.75708 17.1725 6.54572 17.2285 6.33057 17.2293H3.00049C2.80158 17.2293 2.61081 17.3083 2.47016 17.4489C2.32951 17.5896 2.25049 17.7803 2.25049 17.9793C2.25049 18.1782 2.32951 18.3689 2.47016 18.5096C2.61081 18.6502 2.80158 18.7293 3.00049 18.7293H6.33057C6.80389 18.7277 7.26889 18.6047 7.68105 18.372C8.09322 18.1393 8.43875 17.8046 8.68457 17.4002L14.7378 7.37428C14.8499 7.19054 15.0073 7.03859 15.1948 6.93294C15.3823 6.82729 15.5938 6.77145 15.8091 6.77076Z" fill="#111111"/>
<path d="M3.00049 6.77076H6.19238C6.40744 6.77141 6.61874 6.82724 6.80605 6.9329C6.99337 7.03857 7.15043 7.19055 7.26221 7.37428L8.25146 9.01246C8.35304 9.18159 8.52224 9.30668 8.71372 9.35421C8.9052 9.40175 9.11325 9.37032 9.28214 9.26835C9.45103 9.16637 9.57573 8.99688 9.62282 8.80529C9.66992 8.61371 9.63801 8.40572 9.53564 8.23707L8.54639 6.59889C8.30044 6.19459 7.95486 5.86017 7.54271 5.62763C7.13055 5.39509 6.66562 5.27222 6.19239 5.27076H3.00049C2.80158 5.27076 2.61081 5.34978 2.47016 5.49043C2.32951 5.63108 2.25049 5.82185 2.25049 6.02076C2.25049 6.21967 2.32951 6.41044 2.47016 6.55109C2.61081 6.69174 2.80158 6.77076 3.00049 6.77076Z" fill="#111111"/>
</svg>
